<svg xmlns="http://www.w3.org/2000/svg" viewBox="0 0 238 128" role="img" aria-label="Barcode 123456789128">
  <rect width="100%" height="100%" fill="#ffffff"/>
  <g>
    <rect x="24" y="0" width="2" height="98" fill="#111111" />
    <rect x="28" y="0" width="2" height="98" fill="#111111" />
    <rect x="34" y="0" width="2" height="86" fill="#111111" />
    <rect x="36" y="0" width="2" height="86" fill="#111111" />
    <rect x="42" y="0" width="2" height="86" fill="#111111" />
    <rect x="48" y="0" width="2" height="86" fill="#111111" />
    <rect x="54" y="0" width="2" height="86" fill="#111111" />
    <rect x="56" y="0" width="2" height="86" fill="#111111" />
    <rect x="60" y="0" width="2" height="86" fill="#111111" />
    <rect x="62" y="0" width="2" height="86" fill="#111111" />
    <rect x="64" y="0" width="2" height="86" fill="#111111" />
    <rect x="66" y="0" width="2" height="86" fill="#111111" />
    <rect x="70" y="0" width="2" height="86" fill="#111111" />
    <rect x="74" y="0" width="2" height="86" fill="#111111" />
    <rect x="82" y="0" width="2" height="86" fill="#111111" />
    <rect x="84" y="0" width="2" height="86" fill="#111111" />
    <rect x="88" y="0" width="2" height="86" fill="#111111" />
    <rect x="90" y="0" width="2" height="86" fill="#111111" />
    <rect x="98" y="0" width="2" height="86" fill="#111111" />
    <rect x="102" y="0" width="2" height="86" fill="#111111" />
    <rect x="106" y="0" width="2" height="86" fill="#111111" />
    <rect x="108" y="0" width="2" height="86" fill="#111111" />
    <rect x="110" y="0" width="2" height="86" fill="#111111" />
    <rect x="112" y="0" width="2" height="86" fill="#111111" />
    <rect x="116" y="0" width="2" height="98" fill="#111111" />
    <rect x="120" y="0" width="2" height="98" fill="#111111" />
    <rect x="124" y="0" width="2" height="86" fill="#111111" />
    <rect x="132" y="0" width="2" height="86" fill="#111111" />
    <rect x="138" y="0" width="2" height="86" fill="#111111" />
    <rect x="144" y="0" width="2" height="86" fill="#111111" />
    <rect x="152" y="0" width="2" height="86" fill="#111111" />
    <rect x="154" y="0" width="2" height="86" fill="#111111" />
    <rect x="156" y="0" width="2" height="86" fill="#111111" />
    <rect x="160" y="0" width="2" height="86" fill="#111111" />
    <rect x="166" y="0" width="2" height="86" fill="#111111" />
    <rect x="168" y="0" width="2" height="86" fill="#111111" />
    <rect x="174" y="0" width="2" height="86" fill="#111111" />
    <rect x="176" y="0" width="2" height="86" fill="#111111" />
    <rect x="180" y="0" width="2" height="86" fill="#111111" />
    <rect x="182" y="0" width="2" height="86" fill="#111111" />
    <rect x="186" y="0" width="2" height="86" fill="#111111" />
    <rect x="188" y="0" width="2" height="86" fill="#111111" />
    <rect x="194" y="0" width="2" height="86" fill="#111111" />
    <rect x="200" y="0" width="2" height="86" fill="#111111" />
    <rect x="208" y="0" width="2" height="98" fill="#111111" />
    <rect x="212" y="0" width="2" height="98" fill="#111111" />
  </g>
  <text x="50%" y="118" text-anchor="middle" font-family="monospace" font-size="18" letter-spacing="2">123456789128</text>
</svg>