<svg xmlns="http://www.w3.org/2000/svg" viewBox="0 0 238 128" role="img" aria-label="Barcode 4563546373886">
  <rect width="100%" height="100%" fill="#ffffff"/>
  <g>
    <rect x="24" y="0" width="2" height="98" fill="#111111" />
    <rect x="28" y="0" width="2" height="98" fill="#111111" />
    <rect x="32" y="0" width="2" height="86" fill="#111111" />
    <rect x="34" y="0" width="2" height="86" fill="#111111" />
    <rect x="42" y="0" width="2" height="86" fill="#111111" />
    <rect x="52" y="0" width="2" height="86" fill="#111111" />
    <rect x="56" y="0" width="2" height="86" fill="#111111" />
    <rect x="60" y="0" width="2" height="86" fill="#111111" />
    <rect x="62" y="0" width="2" height="86" fill="#111111" />
    <rect x="64" y="0" width="2" height="86" fill="#111111" />
    <rect x="66" y="0" width="2" height="86" fill="#111111" />
    <rect x="70" y="0" width="2" height="86" fill="#111111" />
    <rect x="74" y="0" width="2" height="86" fill="#111111" />
    <rect x="76" y="0" width="2" height="86" fill="#111111" />
    <rect x="84" y="0" width="2" height="86" fill="#111111" />
    <rect x="90" y="0" width="2" height="86" fill="#111111" />
    <rect x="92" y="0" width="2" height="86" fill="#111111" />
    <rect x="94" y="0" width="2" height="86" fill="#111111" />
    <rect x="98" y="0" width="2" height="86" fill="#111111" />
    <rect x="108" y="0" width="2" height="86" fill="#111111" />
    <rect x="112" y="0" width="2" height="86" fill="#111111" />
    <rect x="116" y="0" width="2" height="98" fill="#111111" />
    <rect x="120" y="0" width="2" height="98" fill="#111111" />
    <rect x="124" y="0" width="2" height="86" fill="#111111" />
    <rect x="134" y="0" width="2" height="86" fill="#111111" />
    <rect x="138" y="0" width="2" height="86" fill="#111111" />
    <rect x="146" y="0" width="2" height="86" fill="#111111" />
    <rect x="152" y="0" width="2" height="86" fill="#111111" />
    <rect x="162" y="0" width="2" height="86" fill="#111111" />
    <rect x="166" y="0" width="2" height="86" fill="#111111" />
    <rect x="172" y="0" width="2" height="86" fill="#111111" />
    <rect x="180" y="0" width="2" height="86" fill="#111111" />
    <rect x="186" y="0" width="2" height="86" fill="#111111" />
    <rect x="194" y="0" width="2" height="86" fill="#111111" />
    <rect x="198" y="0" width="2" height="86" fill="#111111" />
    <rect x="208" y="0" width="2" height="98" fill="#111111" />
    <rect x="212" y="0" width="2" height="98" fill="#111111" />
  </g>
  <text x="50%" y="118" text-anchor="middle" font-family="monospace" font-size="18" letter-spacing="2">4563546373886</text>
</svg>